<svg width="120" height="26" viewBox="0 0 120 26" fill="none" xmlns="http://www.w3.org/2000/svg">
<path d="M11.668 9.49184C11.5138 9.33766 11.3288 9.21432 11.1438 9.12182C11.853 8.25845 12.223 7.1484 12.223 6.00751C12.223 4.49661 11.5447 3.07821 10.3729 2.12233C9.44789 1.35146 8.27617 0.981445 6.73443 0.981445H0.320801V6.00751V8.22761V11.0027V13.8704V19.544H7.53613C9.29371 19.544 10.6196 19.1431 11.6372 18.2797C12.963 17.2005 13.7339 15.5971 13.7339 13.9012C13.7648 12.1745 12.9939 10.5711 11.668 9.49184ZM3.52761 3.97242H6.14857C7.62864 3.97242 8.12199 4.28076 8.39951 4.61995C8.73869 4.98996 8.95453 5.48332 8.95453 6.00751C8.95453 6.5317 8.76952 6.99422 8.39951 7.39507C8.09116 7.73426 7.62864 8.0426 6.14857 8.0426H3.52761C3.52761 8.0426 3.52761 3.97242 3.52761 3.97242ZM9.7254 15.6896C9.29371 16.1213 8.64618 16.5222 6.95027 16.5222H3.52761V11.0644H6.98111C8.67702 11.0644 9.29371 11.4653 9.7254 11.8969C10.2188 12.4211 10.4963 13.0995 10.4963 13.7779C10.4963 14.4871 10.2188 15.1654 9.7254 15.6896Z" fill="#63B150"/>
<path d="M27.2087 6.87231H24.1869V19.5454H27.2087V6.87231Z" fill="#63B150"/>
<path d="M25.6666 0.950195C24.6182 0.950195 23.7856 1.78273 23.7856 2.86195C23.7856 3.91033 24.6182 4.74287 25.6666 4.74287C26.7458 4.74287 27.5783 3.91033 27.5783 2.86195C27.5783 1.81357 26.7149 0.950195 25.6666 0.950195Z" fill="#63B150"/>
<path d="M38.5868 7.70495C37.5693 6.99575 36.3976 6.62573 35.0717 6.62573C33.9308 6.62573 32.8516 6.90325 31.9574 7.42744C29.9531 8.59916 28.7197 10.8193 28.7197 13.1935C28.7197 15.5986 29.9223 17.7571 31.9574 18.9288C32.8516 19.453 34.0233 19.7613 35.1334 19.7613C36.3976 19.7613 37.5385 19.4222 38.4943 18.7438V18.8363C38.4943 20.2239 38.3093 21.1489 37.8776 21.7964C37.3226 22.629 36.3976 23.0607 35.1642 23.0607C33.2216 23.0607 32.1732 22.0123 31.4024 21.0256L31.2173 20.7789L29.0281 22.814L29.1514 22.999C30.0148 24.3557 32.1424 25.9283 35.2875 25.9283C37.7235 25.9283 39.7277 24.7874 40.7761 22.7831C41.3003 21.7656 41.5161 20.5014 41.5161 18.6821V6.87241H38.5868V7.70495V7.70495ZM38.4943 15.3828C37.7543 16.3387 36.6134 16.9245 35.4417 16.9245C33.3449 16.9245 31.7107 15.2903 31.7107 13.2244C31.7107 11.0968 33.2524 9.5242 35.3184 9.5242C36.5209 9.5242 37.7235 10.1101 38.4943 11.0659V15.3828Z" fill="#63B150"/>
<path d="M49.5027 6.62379C48.0535 6.62379 46.9434 7.14798 46.2342 7.64134V0.950195H43.2124V19.5435H46.2342V11.064C46.8509 10.3548 47.8993 9.52226 49.441 9.52226C50.3352 9.52226 51.1986 9.92311 51.7228 10.6015C52.062 11.0332 52.3703 11.619 52.3703 13.2224V19.5435H55.3921V13.3458C55.3921 11.3107 55.0221 9.98478 54.1587 8.87473C53.0179 7.45633 51.3528 6.62379 49.5027 6.62379Z" fill="#63B150"/>
<path d="M75.0952 7.42744C74.2009 6.90325 73.1217 6.62573 71.9808 6.62573C70.6549 6.62573 69.4832 6.99575 68.4657 7.70495V6.90325H65.5364V25.7433H68.5582V18.7746C69.5141 19.453 70.6549 19.7922 71.9192 19.7922C73.0292 19.7922 74.2318 19.4838 75.0952 18.9596C77.1302 17.7571 78.3328 15.6295 78.3328 13.2244C78.3636 10.8501 77.0994 8.62999 75.0952 7.42744ZM71.6108 16.9245C70.4699 16.9245 69.329 16.3387 68.5582 15.3828V11.0351C69.329 10.0792 70.5008 9.49336 71.7342 9.49336C73.8001 9.49336 75.3418 11.0968 75.3418 13.1935C75.3418 15.2903 73.7076 16.9245 71.6108 16.9245Z" fill="#63B150"/>
<path d="M85.8256 6.62573C82.2488 6.62573 79.6587 9.40086 79.6587 13.2244C79.6587 16.9862 82.4647 19.823 86.1957 19.823C89.3408 19.823 90.9442 18.1579 91.4992 17.4487L91.6534 17.2329L89.6491 15.352L89.4641 15.5678C88.7858 16.3387 87.8299 17.1095 86.1957 17.1095C84.3764 17.1095 82.8655 15.7837 82.588 14.0261H91.8384L91.8693 13.7794C91.9001 13.5327 91.9001 13.3477 91.9001 13.2244C91.9001 9.46253 89.2791 6.62573 85.8256 6.62573ZM82.8963 11.3743C83.3897 10.1409 84.5614 9.30836 85.9182 9.30836C87.1207 9.30836 88.2924 10.1717 88.7241 11.3743H82.8963Z" fill="#63B150"/>
<path d="M103.031 7.70495C102.014 6.99575 100.842 6.62573 99.5163 6.62573C98.3754 6.62573 97.2962 6.90325 96.402 7.42744C94.3977 8.59916 93.1643 10.8193 93.1643 13.1935C93.1643 15.5986 94.3669 17.7571 96.402 18.9288C97.2962 19.453 98.4679 19.7613 99.5779 19.7613C100.842 19.7613 102.045 19.3913 103.031 18.713V19.5147H105.961V6.87241H103.031V7.70495ZM102.939 15.3828C102.199 16.3387 101.058 16.9245 99.8863 16.9245C97.7895 16.9245 96.1553 15.2903 96.1553 13.2244C96.1553 11.0968 97.697 9.5242 99.7629 9.5242C100.965 9.5242 102.168 10.1101 102.939 11.0659V15.3828Z" fill="#63B150"/>
<path d="M119.59 0.797852H116.568V19.5454H119.59V0.797852Z" fill="#63B150"/>
<path d="M63.8406 16.7684C63.4398 16.8918 62.7614 16.9534 62.3297 16.9534C61.5897 16.9534 60.8497 16.6759 60.5105 16.2751C60.2021 15.905 60.1405 15.3192 60.1405 14.5792V9.58393H63.8406V6.87047H60.1405V0.950195H57.1187V14.3941C57.1187 16.0592 57.4887 17.2926 58.2595 18.1252C59.2154 19.2044 60.5721 19.7594 62.2372 19.7594C62.7614 19.7594 63.3473 19.6977 63.8406 19.6052V16.7684Z" fill="#63B150"/>
<path d="M22.5834 6.74907C22.1826 6.65657 21.7509 6.62573 21.3192 6.62573C19.87 6.62573 18.7599 7.14992 18.0507 7.64328V6.87241H15.0289V19.5455H18.0507V11.0659C18.6674 10.3567 19.7158 9.5242 21.2576 9.5242C21.7201 9.5242 22.1826 9.64754 22.6143 9.83255L22.5834 6.74907Z" fill="#63B150"/>
<path d="M115.211 6.74907C114.81 6.65657 114.379 6.62573 113.947 6.62573C112.498 6.62573 111.388 7.14992 110.678 7.64328V6.87241H107.657V19.5455H110.678V11.0659C111.295 10.3567 112.343 9.5242 113.885 9.5242C114.348 9.5242 114.81 9.64754 115.242 9.83255L115.211 6.74907Z" fill="#63B150"/>
</svg>
