<svg width="150" height="21" viewBox="0 0 150 21" fill="none" xmlns="http://www.w3.org/2000/svg">
<path d="M61.5625 0.325684H66.242V19.9891H61.5625V0.325684Z" fill="#63B150"/>
<path d="M70.4184 8.72658H68.1591V5.69768H70.4184C70.4184 1.59219 71.8515 0.325684 75.8474 0.325684C76.5877 0.325684 77.3593 0.380269 78.103 0.408012V3.71299C77.6645 3.65615 77.2531 3.63033 76.8381 3.63033C75.7646 3.63033 75.1032 3.76781 75.1032 5.06183V5.69768H77.9112V8.72658H75.1032V19.9891H70.4184V8.72658Z" fill="#63B150"/>
<path d="M91.0244 15.2784C91.0244 15.9949 91.3254 16.5159 91.7955 16.8768C92.234 17.2087 92.8685 17.3736 93.53 17.3736C94.4382 17.3736 95.7309 16.9861 95.7309 15.8579C95.7309 14.7582 94.2709 14.5346 93.448 14.3393C90.4994 13.5998 86.8108 13.5173 86.8108 9.66056C86.8108 6.21855 90.5264 5.28271 93.3379 5.28271C96.4751 5.28271 99.7524 6.19295 99.9164 9.90755H95.5939C95.5939 9.30407 95.3746 8.91848 94.9868 8.67003C94.603 8.42146 94.0786 8.31173 93.4989 8.31173C92.7314 8.31173 91.4901 8.39417 91.4901 9.38617C91.4901 10.7337 94.6305 10.9842 96.78 11.45C99.6702 12.0297 100.414 14.1234 100.414 15.306C100.414 19.1357 96.7799 20.4003 93.5573 20.4003C90.1705 20.4003 86.7012 19.2722 86.5603 15.2784H91.0244Z" fill="#63B150"/>
<path d="M102.099 0.325684H106.782V7.6501H106.837C107.553 6.193 109.48 5.28276 111.187 5.28276C115.953 5.28276 116.337 8.75206 116.337 10.8194V19.9891H111.657V13.0767C111.657 11.1209 111.877 9.13619 109.315 9.13619C107.553 9.13619 106.782 10.6259 106.782 12.1942V19.9891H102.099V0.325684Z" fill="#63B150"/>
<path d="M122.65 13.9864C122.733 15.9406 123.864 17.2365 125.849 17.2365C126.973 17.2365 128.077 16.7083 128.516 15.6659H132.898C132.044 18.971 128.986 20.4003 125.791 20.4003C121.139 20.4003 117.967 17.5929 117.967 12.8007C117.967 8.42146 121.467 5.28271 125.681 5.28271C130.803 5.28271 133.364 9.13614 133.144 13.9864H122.65ZM128.461 11.368C128.379 9.77041 127.251 8.45022 125.681 8.45022C124.028 8.45022 122.928 9.63474 122.65 11.368H128.461Z" fill="#63B150"/>
<path d="M135.056 5.69931H139.602V8.20198H139.657C140.346 6.38839 141.944 5.42334 143.953 5.42334C144.312 5.42334 144.696 5.44894 145.056 5.53116V9.80141C144.45 9.63653 143.898 9.5251 143.263 9.5251C140.953 9.5251 139.74 11.1225 139.74 12.913V19.9907H135.056V5.69931Z" fill="#63B150"/>
<path d="M80.0955 5.69765H84.7786V19.9891H80.0955V5.69765ZM84.7619 0.399414H80.092V3.71297H84.7619V0.399414Z" fill="#63B150"/>
<path d="M149.321 19.9808H144.651V16.6655H149.321V19.9808Z" fill="#63B150"/>
<path d="M21.7426 13.9864C21.8248 15.9406 22.9561 17.2365 24.9379 17.2365C26.069 17.2365 27.1695 16.7083 27.6085 15.6659H31.9861C31.136 18.971 28.0781 20.4003 24.8831 20.4003C20.2306 20.4003 17.0632 17.5929 17.0632 12.8007C17.0632 8.42146 20.5597 5.28271 24.7732 5.28271C29.8952 5.28271 32.456 9.13614 32.2364 13.9864H21.7426ZM27.5535 11.368C27.4712 9.77041 26.3435 8.45022 24.7732 8.45022C23.1206 8.45022 22.0202 9.63474 21.7426 11.368H27.5535Z" fill="#63B150"/>
<path d="M43.176 19.9891C43.0112 19.5469 42.9565 19.1051 42.9017 18.6382C41.6881 19.9067 39.8985 20.4003 38.1947 20.4003C35.4656 20.4003 33.3196 19.0223 33.3196 16.0774C33.3196 11.4227 38.3831 11.7849 41.6366 11.1208C42.432 10.9566 42.8742 10.6806 42.8742 9.79962C42.8742 8.72653 41.5784 8.31173 40.615 8.31173C39.3226 8.31173 38.4965 8.88938 38.2733 10.1011H33.8955C33.9776 8.22748 34.8589 7.01567 36.1273 6.27506C37.3957 5.55869 39.0448 5.28271 40.6699 5.28271C44.0604 5.28271 47.3343 6.02502 47.3343 10.0738V19.9891H43.176ZM39.9566 17.5104C42.1851 17.5104 42.929 16.242 42.8194 13.2964C42.1578 13.7093 40.9475 13.7916 39.9291 14.0683C38.8801 14.3153 37.9992 14.7582 37.9992 15.8853C37.9992 17.0407 38.9078 17.5104 39.9566 17.5104Z" fill="#63B150"/>
<path d="M49.8064 5.69931H54.3523V8.20198H54.4036C55.0929 6.38839 56.6905 5.42334 58.6996 5.42334C59.0593 5.42334 59.4435 5.44894 59.8031 5.53116V9.80141C59.1967 9.63653 58.6448 9.5251 58.0138 9.5251C55.6995 9.5251 54.4862 11.1225 54.4862 12.913V19.9907H49.8064V5.69931Z" fill="#63B150"/>
<path d="M0.84668 0.416016H9.99761C13.7084 0.416016 17.197 2.11864 17.197 6.83683C17.197 11.7761 14.3791 13.7026 9.99761 13.7026H6.0378V20.3446H0.84668V0.416016ZM6.0378 9.68063H9.21572C10.835 9.68063 12.006 9.01183 12.006 7.19637C12.006 5.32696 10.8071 4.57657 9.21572 4.57657H6.0378V9.68063Z" fill="#63B150"/>
<path d="M149.254 20.0431H144.557V16.7085H149.254V20.0431Z" fill="#63B150"/>
</svg>
