<svg width="136" height="24" viewBox="0 0 136 24" fill="none" xmlns="http://www.w3.org/2000/svg">
<path d="M120.342 14.6424C120.342 9.23872 121.812 5.45615 128.094 5.45615C134.376 5.45615 135.847 9.23872 135.847 14.6424C135.847 20.046 134.376 23.8286 128.094 23.8286C121.946 23.8286 120.342 20.046 120.342 14.6424ZM131.97 14.6424C131.97 10.8598 131.436 8.69835 128.228 8.69835C125.02 8.69835 124.485 10.8598 124.485 14.6424C124.485 18.4249 125.02 20.5864 128.228 20.5864C131.436 20.5864 131.97 18.2899 131.97 14.6424ZM13.01 23.1532C13.1437 23.2882 13.2774 23.4233 13.411 23.4233H14.8813C15.1487 23.4233 15.416 23.1532 15.416 22.883V6.2667C15.416 5.99652 15.1487 5.72633 14.8813 5.72633H12.0744C11.8071 5.72633 11.5397 5.99652 11.5397 6.2667V19.3706C10.3368 20.046 8.86648 20.4513 7.52985 20.4513C5.65856 20.4513 4.72292 19.6408 4.72292 17.8846V6.2667C4.72292 5.99652 4.45559 5.72633 4.18826 5.72633H1.38133C1.11401 5.72633 0.84668 5.99652 0.84668 6.2667V18.1548C0.84668 21.5321 2.45064 23.8286 6.86153 23.8286C8.86648 23.8286 10.8714 23.1532 12.4754 21.9373L13.01 23.1532V23.1532ZM45.6239 10.9949C45.6239 7.61762 44.0199 5.32106 39.8764 5.32106C37.8714 5.32106 36.0001 5.99652 34.2625 7.07725C33.5942 5.99652 32.1239 5.32106 29.8516 5.32106C27.9803 5.32106 26.1091 5.99652 24.6388 7.21234L24.1041 5.99652C23.9704 5.86143 23.8368 5.72633 23.7031 5.72633H22.2328C21.9655 5.72633 21.6982 5.99652 21.6982 6.2667V22.883C21.6982 23.1532 21.9655 23.4233 22.2328 23.4233H25.1734C25.4407 23.4233 25.7081 23.1532 25.7081 22.883V9.77908C26.7774 9.10362 28.114 8.69835 29.317 8.69835C30.9209 8.69835 31.8566 9.23872 31.8566 10.9949V22.883C31.8566 23.1532 32.1239 23.4233 32.3912 23.4233H35.3318C35.5992 23.4233 35.8665 23.1532 35.8665 22.883V9.77908C36.9358 9.10362 38.2724 8.69835 39.4754 8.69835C40.9457 8.69835 42.015 9.23872 42.015 10.9949V22.883C42.015 23.1532 42.2823 23.4233 42.5497 23.4233H45.4902C45.7576 23.4233 46.0249 23.1532 46.0249 22.883L45.6239 10.9949V10.9949ZM54.5794 21.9373C56.1833 23.1532 58.1883 23.8286 60.1932 23.8286C65.2724 23.8286 67.1437 20.3162 67.1437 14.6424C67.1437 8.96853 65.2724 5.45615 60.1932 5.45615C58.5893 5.45615 56.8516 5.99652 55.515 6.80707V1.4034C55.515 1.13322 55.2477 0.863037 54.9803 0.863037H52.0397C51.7724 0.863037 51.6388 1.13322 51.6388 1.4034V22.883C51.6388 23.1532 51.9061 23.4233 52.1734 23.4233H53.6437C53.7774 23.4233 54.0447 23.2882 54.0447 23.1532L54.5794 21.9373ZM59.2576 20.4513C57.9209 20.4513 56.5843 20.046 55.515 19.3706V9.77908C56.718 9.10362 57.9209 8.69835 59.2576 8.69835C62.7328 8.69835 63.1338 11.4002 63.1338 14.6424C63.1338 17.8846 62.7328 20.4513 59.2576 20.4513ZM81.5794 8.83344C81.1784 8.83344 80.6437 8.69835 80.2427 8.69835C78.6388 8.69835 77.1685 8.96853 75.8318 9.77908V22.883C75.8318 23.1532 75.5645 23.4233 75.2972 23.4233H72.3566C72.0893 23.4233 71.8219 23.1532 71.8219 22.883V6.2667C71.8219 5.99652 72.0893 5.72633 72.3566 5.72633H73.8269C73.9605 5.72633 74.2279 5.86143 74.2279 5.99652L74.7625 7.21234C76.3665 5.99652 78.2378 5.32106 80.2427 5.32106C80.6437 5.32106 81.1784 5.32106 81.5794 5.45615C81.8467 5.45615 82.114 5.86143 82.114 6.13161V8.29308C82.114 8.56326 81.8467 8.83344 81.5794 8.83344ZM91.6041 15.3178C89.8665 15.588 88.7972 16.1284 88.7972 18.0197C88.7972 19.3706 89.3318 20.5864 91.4704 20.5864C92.8071 20.5864 94.1437 20.1811 95.213 19.3706V14.7775L91.6041 15.3178ZM96.2823 21.9373C94.812 23.1532 92.9407 23.8286 91.0695 23.8286C86.5249 23.8286 85.0546 20.9917 85.0546 18.1548C85.0546 14.3722 87.4605 12.7511 91.4704 12.3458L95.3467 12.0756V11.2651C95.3467 9.5089 94.5447 8.69835 91.8714 8.69835C90.2675 8.69835 88.6635 8.96853 87.0596 9.5089H86.9259C86.6586 9.5089 86.3912 9.23872 86.3912 8.96853V6.67198C86.3912 6.40179 86.5249 6.2667 86.7922 6.13161C88.5299 5.59124 90.4011 5.18597 92.1388 5.18597C97.8863 5.18597 99.2229 7.75271 99.2229 11.4002V22.6128C99.2229 22.883 98.9556 23.1532 98.6883 23.1532H97.218C97.0843 23.1532 96.817 23.0181 96.817 22.883L96.2823 21.9373V21.9373ZM116.064 19.7759H116.198C116.465 19.7759 116.733 20.046 116.733 20.3162V22.6128C116.733 22.883 116.599 23.0181 116.465 23.1532C114.995 23.6935 113.525 23.9637 111.921 23.8286C105.772 23.8286 103.901 20.046 103.901 14.6424C103.901 9.23872 105.772 5.45615 111.921 5.45615C113.391 5.45615 114.995 5.59124 116.332 6.13161C116.465 6.2667 116.599 6.40179 116.599 6.67198V8.96853C116.599 9.23872 116.332 9.5089 116.064 9.5089H115.931C114.728 9.10362 113.391 8.96853 112.055 8.96853C108.713 8.96853 107.644 11.2651 107.644 14.7775C107.644 18.2899 108.579 20.5864 112.055 20.5864C113.525 20.3162 114.862 20.1811 116.064 19.7759" fill="#63B150"/>
</svg>
