<svg width="181" height="211" viewBox="0 0 181 211" fill="none" xmlns="http://www.w3.org/2000/svg">
<path opacity="0.05" d="M-3.04999 210.48C-21.8033 210.48 -37.85 206.13 -51.19 197.43C-64.53 188.537 -74.8733 176.26 -82.22 160.6C-89.3733 144.747 -92.95 126.38 -92.95 105.5C-92.95 84.8133 -89.3733 66.5433 -82.22 50.69C-74.8733 34.8367 -64.53 22.56 -51.19 13.86C-37.85 4.96666 -21.8033 0.519996 -3.04999 0.519996C15.7033 0.519996 31.75 4.96666 45.09 13.86C58.43 22.56 68.6767 34.8367 75.83 50.69C83.1767 66.5433 86.85 84.8133 86.85 105.5C86.85 126.38 83.1767 144.747 75.83 160.6C68.6767 176.26 58.43 188.537 45.09 197.43C31.75 206.13 15.7033 210.48 -3.04999 210.48ZM-3.04999 177.13C12.2233 177.13 24.6933 170.75 34.36 157.99C44.0267 145.23 48.86 127.733 48.86 105.5C48.86 83.2667 44.0267 65.77 34.36 53.01C24.6933 40.25 12.2233 33.87 -3.04999 33.87C-18.5167 33.87 -31.0833 40.25 -40.75 53.01C-50.2233 65.77 -54.96 83.2667 -54.96 105.5C-54.96 127.733 -50.2233 145.23 -40.75 157.99C-31.0833 170.75 -18.5167 177.13 -3.04999 177.13ZM141.649 207V46.34L108.299 54.17V25.75L157.309 3.99999H180.219V207H141.649Z" fill="white"/>
</svg>
