<svg width="22" height="24" viewBox="0 0 22 24" fill="none" xmlns="http://www.w3.org/2000/svg">
<path fill-rule="evenodd" clip-rule="evenodd" d="M2.97913 5.5C2.97913 5.1203 3.28693 4.8125 3.66663 4.8125H18.3333C18.713 4.8125 19.0208 5.1203 19.0208 5.5C19.0208 5.8797 18.713 6.1875 18.3333 6.1875H3.66663C3.28693 6.1875 2.97913 5.8797 2.97913 5.5Z" fill="#F9F9F9"/>
<path fill-rule="evenodd" clip-rule="evenodd" d="M2.97913 9.16675C2.97913 8.78705 3.28693 8.47925 3.66663 8.47925H18.3333C18.713 8.47925 19.0208 8.78705 19.0208 9.16675C19.0208 9.54644 18.713 9.85425 18.3333 9.85425H3.66663C3.28693 9.85425 2.97913 9.54644 2.97913 9.16675Z" fill="#F9F9F9"/>
<path fill-rule="evenodd" clip-rule="evenodd" d="M2.97913 12.8333C2.97913 12.4536 3.28693 12.1458 3.66663 12.1458H18.3333C18.713 12.1458 19.0208 12.4536 19.0208 12.8333C19.0208 13.2129 18.713 13.5208 18.3333 13.5208H3.66663C3.28693 13.5208 2.97913 13.2129 2.97913 12.8333Z" fill="#F9F9F9"/>
<path fill-rule="evenodd" clip-rule="evenodd" d="M2.97913 16.5C2.97913 16.1203 3.28693 15.8125 3.66663 15.8125H18.3333C18.713 15.8125 19.0208 16.1203 19.0208 16.5C19.0208 16.8797 18.713 17.1875 18.3333 17.1875H3.66663C3.28693 17.1875 2.97913 16.8797 2.97913 16.5Z" fill="#F9F9F9"/>
</svg>
