<svg width="22" height="24" viewBox="0 0 22 24" fill="none" xmlns="http://www.w3.org/2000/svg">
<path fill-rule="evenodd" clip-rule="evenodd" d="M11 9.62492C12.7719 9.62492 14.2083 8.1885 14.2083 6.41659C14.2083 4.64467 12.7719 3.20825 11 3.20825C9.22805 3.20825 7.79163 4.64467 7.79163 6.41659C7.79163 8.1885 9.22805 9.62492 11 9.62492ZM11 10.9999C13.5313 10.9999 15.5833 8.94789 15.5833 6.41659C15.5833 3.88528 13.5313 1.83325 11 1.83325C8.46865 1.83325 6.41663 3.88528 6.41663 6.41659C6.41663 8.94789 8.46865 10.9999 11 10.9999Z" fill="#F9F9F9"/>
<path fill-rule="evenodd" clip-rule="evenodd" d="M8.24996 14.4375C6.09835 14.4375 4.35413 16.1817 4.35413 18.3333V19.25C4.35413 19.6297 4.04632 19.9375 3.66663 19.9375C3.28693 19.9375 2.97913 19.6297 2.97913 19.25V18.3333C2.97913 15.4223 5.33896 13.0625 8.24996 13.0625H13.75C16.661 13.0625 19.0208 15.4223 19.0208 18.3333V19.25C19.0208 19.6297 18.713 19.9375 18.3333 19.9375C17.9536 19.9375 17.6458 19.6297 17.6458 19.25V18.3333C17.6458 16.1817 15.9016 14.4375 13.75 14.4375H8.24996Z" fill="#F9F9F9"/>
</svg>
