<svg width="22" height="24" viewBox="0 0 22 24" fill="none" xmlns="http://www.w3.org/2000/svg">
<g clip-path="url(#clip0_19_204)">
<path fill-rule="evenodd" clip-rule="evenodd" d="M16.383 15.4106C17.5997 13.9732 18.3334 12.1139 18.3334 10.0833C18.3334 5.5269 14.6397 1.83325 10.0834 1.83325C5.52702 1.83325 1.83337 5.5269 1.83337 10.0833C1.83337 14.6396 5.52702 18.3333 10.0834 18.3333C12.114 18.3333 13.9734 17.5996 15.4107 16.3829L17.8472 18.8194C18.1157 19.0879 18.551 19.0879 18.8195 18.8194C19.088 18.5509 19.088 18.1156 18.8195 17.8471L16.383 15.4106ZM16.9584 10.0833C16.9584 13.8802 13.8803 16.9583 10.0834 16.9583C6.28642 16.9583 3.20837 13.8802 3.20837 10.0833C3.20837 6.28629 6.28642 3.20825 10.0834 3.20825C13.8803 3.20825 16.9584 6.28629 16.9584 10.0833Z" fill="#F9F9F9"/>
</g>
<defs>
<clipPath id="clip0_19_204">
<rect width="22" height="24" fill="white"/>
</clipPath>
</defs>
</svg>
